<?xml version="1.0" encoding="UTF-8"?>
<svg id="Layer_1" data-name="Layer 1" xmlns="http://www.w3.org/2000/svg" viewBox="0 0 160 160">
  <path d="M132,23v104H28V23h104M134,21H26v108h108V21h0Z"/>
  <g>
    <path d="M39.07,92.23v-11.22h8.26v2.77h-5.43v1.62h4.51v2.4h-4.51v4.44h-2.83Z"/>
    <path d="M47.51,86.64c.03-3.59,2.85-5.8,6.07-5.8s5.96,2.29,5.95,5.8c-.03,3.4-2.63,5.76-5.96,5.76s-6.09-2.28-6.05-5.76ZM56.69,86.64c-.02-2.04-1.31-3.4-3.13-3.4s-3.22,1.36-3.22,3.4c.02,1.97,1.38,3.37,3.22,3.37s3.11-1.38,3.13-3.37Z"/>
    <path d="M60.35,92.23v-11.22h4.77c3.7,0,4.62,1.97,4.62,3.71s-.62,3.15-2.52,3.55l-.36.02,2.37,3.94h-3.15l-2.3-3.94h-.6v3.94h-2.82ZM63.17,86.01h1.95c1.14,0,1.78-.36,1.78-1.29,0-.85-.55-1.31-1.8-1.31h-1.94v2.6Z"/>
    <path d="M70.57,92.23v-11.22h2.97l3.16,6.34,3.23-6.34h2.96v11.22h-2.82v-5.92l-2.49,5.92h-1.8l-2.39-5.85v5.85h-2.83Z"/>
    <path d="M83.72,92.23l5.07-11.22h2.7l5.1,11.22h-2.97l-1.4-3.08h-4.13l-1.4,3.08h-2.96ZM89.07,87h2.16l-1.07-2.4-1.09,2.4Z"/>
  </g>
  <g>
    <path d="M38.95,111.09v-4.42h2.72v4.42c0,1.29.71,2.12,1.91,2.09,1.21-.02,1.94-.92,1.94-2.26v-4.25h2.82v8.62h-2.71v-2.04c-.32,1.51-1.71,2.19-2.92,2.21-2.19.03-3.77-1.58-3.77-4.37Z"/>
    <path d="M49.14,115.29v-8.62h2.72v2.09c.45-1.92,2.77-2.7,4.52-1.72l-1.44,2.24c-1-.87-2.94-.02-2.94,1.7v4.3h-2.86Z"/>
    <path d="M59.88,113.28v2.01h-2.71v-11.22h2.72v4.59c.37-1.43,1.79-2.14,3.09-2.16,2.24-.03,3.97,1.65,3.97,4.52,0,2.48-1.73,4.47-4.12,4.44-1.29-.02-2.59-.87-2.96-2.18ZM64.23,111c0-1.41-.91-2.26-2.11-2.24-1.18.03-2.12.85-2.12,2.24,0,1.27.96,2.12,2.11,2.16,1.18.02,2.12-.85,2.12-2.16Z"/>
    <path d="M67.73,111.02c0-2.87,1.71-4.56,3.95-4.52,1.31.02,2.72.73,3.1,2.16v-1.99h2.72v8.62h-2.71v-2.01c-.37,1.31-1.68,2.16-2.97,2.18-2.39.03-4.1-1.96-4.1-4.44ZM74.67,111c0-1.38-.93-2.21-2.11-2.24-1.2-.02-2.12.83-2.12,2.24,0,1.31.95,2.18,2.12,2.16,1.16-.03,2.11-.88,2.11-2.16Z"/>
    <path d="M78.29,115.29v-8.62h2.72v1.99c.37-1.43,1.79-2.14,3.09-2.16,2.24-.03,3.97,1.65,3.97,4.52v4.27h-2.72v-4.28c0-1.41-.91-2.26-2.11-2.24-1.18.03-2.12.85-2.12,2.24v4.28h-2.82Z"/>
    <path d="M88.84,111.02c0-2.87,1.71-4.56,3.95-4.52,1.31.02,2.72.73,3.1,2.16v-1.99h2.72v8.62h-2.71v-2.01c-.37,1.31-1.68,2.16-2.97,2.18-2.39.03-4.1-1.96-4.1-4.44ZM95.78,111c0-1.38-.93-2.21-2.11-2.24-1.2-.02-2.12.83-2.12,2.24,0,1.31.95,2.18,2.12,2.16,1.16-.03,2.11-.88,2.11-2.16Z"/>
  </g>
  <g>
    <path d="M26.04,140.06v-5.6h3.95v.7h-3.15v4.21h3.26v.7h-4.06ZM26.77,137.56v-.68h2.88v.68h-2.88Z"/>
    <path d="M32.45,140.11c-.35,0-.69-.05-1-.14-.32-.1-.57-.21-.75-.35l.32-.61c.18.12.41.23.67.31.27.09.54.13.82.13.36,0,.61-.05.77-.15.16-.1.24-.24.24-.42,0-.13-.05-.24-.14-.31-.1-.08-.22-.13-.38-.17s-.33-.07-.52-.1c-.19-.03-.38-.07-.58-.11-.19-.05-.37-.11-.53-.19-.16-.08-.29-.2-.38-.34-.1-.15-.14-.34-.14-.59s.07-.48.22-.67c.14-.19.35-.34.61-.44.26-.1.58-.16.94-.16.28,0,.56.03.84.1.29.07.52.16.7.28l-.33.61c-.19-.13-.39-.22-.6-.26s-.42-.07-.62-.07c-.34,0-.59.05-.75.16s-.25.25-.25.42c0,.14.05.25.15.33s.23.14.38.18c.16.04.33.08.52.11s.38.07.58.11c.19.04.37.11.52.19.16.08.29.19.38.34.1.14.15.34.15.58,0,.26-.07.48-.22.66-.15.19-.36.33-.63.44-.27.1-.6.16-.98.16Z"/>
    <path d="M34.63,136.45v-.63h2.7v.63h-2.7ZM36.69,140.11c-.43,0-.76-.11-.99-.34s-.35-.56-.35-.98v-3.89h.77v3.86c0,.23.06.41.17.53.11.12.28.18.49.18.24,0,.44-.07.6-.2l.24.55c-.12.1-.26.18-.42.22-.16.05-.33.07-.51.07Z"/>
    <path d="M40.29,140.11c-.45,0-.85-.09-1.2-.28-.34-.19-.61-.44-.8-.77-.19-.33-.28-.7-.28-1.12s.09-.79.28-1.12c.18-.33.44-.58.76-.76.32-.18.69-.28,1.09-.28s.77.09,1.09.27c.31.18.56.44.74.76s.27.71.27,1.15c0,.03,0,.07,0,.11,0,.04,0,.08-.01.12h-3.61v-.55h3.21l-.31.19c0-.27-.05-.51-.17-.73-.12-.21-.28-.38-.48-.5-.21-.12-.44-.18-.72-.18s-.5.06-.71.18-.37.29-.49.5c-.12.22-.18.46-.18.74v.13c0,.28.07.54.2.76.13.22.31.39.55.52.23.12.5.18.81.18.25,0,.48-.04.68-.13.21-.08.39-.21.54-.38l.42.5c-.19.22-.43.39-.72.51-.29.12-.6.18-.96.18ZM39.53,135.21l1.09-1.04h.98l-1.34,1.04h-.72Z"/>
    <path d="M42.69,136.45v-.63h2.7v.63h-2.7ZM44.76,140.11c-.43,0-.76-.11-.99-.34s-.35-.56-.35-.98v-3.89h.77v3.86c0,.23.06.41.17.53.11.12.28.18.49.18.24,0,.44-.07.6-.2l.24.55c-.12.1-.26.18-.42.22-.16.05-.33.07-.51.07Z"/>
    <path d="M47,135.01c-.15,0-.27-.05-.37-.14-.1-.1-.15-.21-.15-.35s.05-.26.15-.36c.1-.1.22-.14.37-.14s.27.05.37.14c.1.09.15.21.15.35s-.05.27-.14.36c-.1.1-.22.15-.38.15ZM46.61,140.06v-4.24h.77v4.24h-.77Z"/>
    <path d="M50.69,140.11c-.43,0-.82-.09-1.16-.28-.34-.19-.6-.44-.8-.77s-.29-.7-.29-1.12.1-.79.29-1.12.46-.58.8-.76c.34-.18.72-.28,1.16-.28.38,0,.73.08,1.03.23.3.15.53.38.7.68l-.58.38c-.14-.21-.31-.36-.51-.46-.2-.1-.41-.15-.64-.15-.28,0-.53.06-.74.18-.22.12-.39.29-.52.52-.13.22-.19.48-.19.79s.06.57.19.79c.13.22.3.4.52.52.22.12.47.18.74.18.23,0,.44-.05.64-.15.2-.1.37-.25.51-.46l.58.37c-.17.29-.4.52-.7.68-.3.16-.64.24-1.03.24Z"/>
    <path d="M54.65,140.11c-.31,0-.59-.05-.83-.16-.24-.11-.42-.25-.55-.44-.13-.19-.19-.4-.19-.64s.05-.44.16-.62.29-.34.54-.45c.25-.11.58-.17,1-.17h1.34v.55h-1.31c-.38,0-.64.06-.78.19s-.2.28-.2.46c0,.21.08.38.25.5.17.13.39.19.69.19s.54-.06.76-.19.37-.31.47-.56l.15.53c-.1.25-.28.45-.54.6s-.58.22-.97.22ZM56.05,140.06v-.9l-.04-.17v-1.53c0-.33-.09-.58-.28-.76-.19-.18-.47-.27-.85-.27-.25,0-.5.04-.74.12-.24.08-.44.19-.61.33l-.32-.58c.22-.18.48-.31.79-.4.31-.09.63-.14.96-.14.58,0,1.03.14,1.34.42.31.28.47.71.47,1.3v2.56h-.73Z"/>
    <path d="M62.2,140.11c-.43,0-.82-.09-1.16-.28-.34-.19-.6-.44-.8-.77s-.29-.7-.29-1.12.1-.79.29-1.12.46-.58.8-.76c.34-.18.72-.28,1.16-.28.38,0,.73.08,1.03.23.3.15.53.38.7.68l-.58.38c-.14-.21-.31-.36-.51-.46-.2-.1-.41-.15-.64-.15-.28,0-.53.06-.74.18-.22.12-.39.29-.52.52-.13.22-.19.48-.19.79s.06.57.19.79c.13.22.3.4.52.52.22.12.47.18.74.18.23,0,.44-.05.64-.15.2-.1.37-.25.51-.46l.58.37c-.17.29-.4.52-.7.68-.3.16-.64.24-1.03.24Z"/>
    <path d="M66.67,140.11c-.42,0-.8-.09-1.13-.28-.33-.19-.6-.44-.79-.77s-.29-.7-.29-1.12.1-.79.29-1.12c.19-.32.45-.58.78-.76.33-.19.71-.28,1.14-.28s.8.09,1.13.28c.33.18.59.44.78.76s.28.7.28,1.12-.09.79-.28,1.12-.45.58-.78.77c-.33.19-.71.28-1.13.28ZM66.67,139.44c.27,0,.52-.06.73-.18.22-.12.39-.3.51-.52.12-.23.18-.49.18-.79s-.06-.57-.18-.79c-.12-.22-.29-.39-.51-.52-.22-.12-.46-.18-.73-.18s-.51.06-.73.18-.38.29-.51.52c-.13.22-.19.48-.19.79s.06.56.19.79c.13.23.3.4.51.52.21.12.46.18.73.18Z"/>
    <path d="M69.93,140.06v-4.24h.74v1.15l-.07-.29c.12-.29.31-.52.59-.67s.62-.23,1.02-.23v.74s-.06,0-.09,0h-.08c-.41,0-.74.12-.98.37-.24.25-.36.6-.36,1.06v2.11h-.77Z"/>
    <path d="M73.16,141.61v-5.79h.74v1.14l-.05.98.08.98v2.68h-.77ZM75.41,140.11c-.35,0-.67-.08-.96-.24-.29-.16-.52-.4-.7-.72s-.26-.72-.26-1.2.08-.88.25-1.2c.17-.32.4-.56.69-.72.29-.16.62-.24.98-.24.42,0,.78.09,1.1.27.32.18.57.43.76.76.19.32.28.7.28,1.13s-.09.81-.28,1.14c-.19.33-.44.58-.76.76-.32.18-.69.27-1.1.27ZM75.34,139.44c.27,0,.52-.06.73-.18.22-.12.39-.3.51-.52.13-.23.19-.49.19-.79s-.06-.57-.19-.79c-.12-.22-.3-.39-.51-.52s-.46-.18-.73-.18-.51.06-.72.18-.39.29-.51.52c-.12.22-.19.48-.19.79s.06.56.19.79c.13.23.3.4.51.52.22.12.46.18.72.18Z"/>
    <path d="M80.43,140.11c-.42,0-.8-.09-1.13-.28-.33-.19-.6-.44-.79-.77s-.29-.7-.29-1.12.1-.79.29-1.12c.19-.32.45-.58.78-.76.33-.19.71-.28,1.14-.28s.8.09,1.13.28c.33.18.6.44.79.76s.28.7.28,1.12-.09.79-.28,1.12-.45.58-.79.77c-.33.19-.71.28-1.13.28ZM80.43,139.44c.27,0,.52-.06.73-.18.21-.12.38-.3.51-.52.12-.23.18-.49.18-.79s-.06-.57-.18-.79c-.12-.22-.29-.39-.51-.52-.22-.12-.46-.18-.73-.18s-.52.06-.73.18-.38.29-.51.52c-.13.22-.19.48-.19.79s.06.56.19.79c.13.23.3.4.51.52.21.12.46.18.73.18Z"/>
    <path d="M83.69,140.06v-4.24h.74v1.15l-.07-.29c.12-.29.32-.52.59-.67s.62-.23,1.02-.23v.74s-.06,0-.09,0h-.08c-.41,0-.74.12-.98.37-.24.25-.36.6-.36,1.06v2.11h-.77Z"/>
    <path d="M87.87,140.11c-.31,0-.59-.05-.83-.16-.24-.11-.42-.25-.55-.44s-.19-.4-.19-.64.05-.44.16-.62c.11-.19.29-.34.54-.45.25-.11.58-.17,1-.17h1.34v.55h-1.31c-.38,0-.64.06-.78.19-.13.13-.2.28-.2.46,0,.21.08.38.25.5.17.13.39.19.69.19s.54-.06.76-.19c.22-.13.37-.31.47-.56l.15.53c-.1.25-.28.45-.54.6-.26.15-.58.22-.97.22ZM89.26,140.06v-.9l-.04-.17v-1.53c0-.33-.09-.58-.28-.76s-.47-.27-.85-.27c-.25,0-.5.04-.74.12-.24.08-.44.19-.61.33l-.32-.58c.22-.18.48-.31.79-.4.31-.09.63-.14.96-.14.58,0,1.03.14,1.34.42.31.28.47.71.47,1.3v2.56h-.73Z"/>
    <path d="M91.41,140.06v-5.94h.77v5.94h-.77Z"/>
    <path d="M95.06,140.06l2.54-5.6h.79l2.54,5.6h-.84l-2.26-5.15h.32l-2.26,5.15h-.82ZM96.14,138.66l.22-.64h3.15l.23.64h-3.6Z"/>
    <path d="M102.55,140.06l-1.86-4.24h.8l1.65,3.84h-.38l1.68-3.84h.75l-1.86,4.24h-.78Z"/>
    <path d="M106.97,140.11c-.31,0-.59-.05-.83-.16-.24-.11-.42-.25-.55-.44s-.19-.4-.19-.64.05-.44.16-.62c.11-.19.29-.34.54-.45.25-.11.58-.17,1-.17h1.34v.55h-1.31c-.38,0-.64.06-.78.19-.13.13-.2.28-.2.46,0,.21.08.38.25.5.17.13.39.19.69.19s.54-.06.76-.19c.22-.13.37-.31.47-.56l.15.53c-.1.25-.28.45-.54.6-.26.15-.58.22-.97.22ZM108.37,140.06v-.9l-.04-.17v-1.53c0-.33-.09-.58-.28-.76s-.47-.27-.85-.27c-.25,0-.5.04-.74.12-.24.08-.44.19-.61.33l-.32-.58c.22-.18.48-.31.79-.4.31-.09.63-.14.96-.14.58,0,1.03.14,1.34.42.31.28.47.71.47,1.3v2.56h-.73Z"/>
    <path d="M110.52,140.06v-4.24h.74v1.14l-.12-.3c.14-.28.35-.49.64-.65s.62-.23,1.01-.23c.35,0,.65.07.92.2.26.13.47.34.62.61.15.27.22.62.22,1.03v2.44h-.77v-2.35c0-.41-.1-.72-.3-.93-.2-.21-.48-.31-.84-.31-.27,0-.51.05-.71.16-.2.11-.36.26-.47.47s-.16.47-.16.78v2.18h-.77Z"/>
    <path d="M115.56,140.06v-.5l2.72-3.38.15.26h-2.82v-.63h3.44v.5l-2.72,3.37-.18-.26h2.96v.63h-3.55Z"/>
    <path d="M121.37,140.11c-.31,0-.59-.05-.83-.16-.24-.11-.42-.25-.55-.44s-.19-.4-.19-.64.05-.44.16-.62c.11-.19.29-.34.54-.45.25-.11.58-.17,1-.17h1.34v.55h-1.31c-.38,0-.64.06-.78.19-.13.13-.2.28-.2.46,0,.21.08.38.25.5.17.13.39.19.69.19s.54-.06.76-.19c.22-.13.37-.31.47-.56l.15.53c-.1.25-.28.45-.54.6-.26.15-.58.22-.97.22ZM122.77,140.06v-.9l-.04-.17v-1.53c0-.33-.09-.58-.28-.76s-.47-.27-.85-.27c-.25,0-.5.04-.74.12-.24.08-.44.19-.61.33l-.32-.58c.22-.18.48-.31.79-.4.31-.09.63-.14.96-.14.58,0,1.03.14,1.34.42.31.28.47.71.47,1.3v2.56h-.73Z"/>
    <path d="M126.67,140.11c-.41,0-.78-.09-1.1-.27-.32-.18-.58-.43-.76-.76-.19-.33-.28-.7-.28-1.14s.09-.81.28-1.13.44-.57.76-.76.69-.27,1.1-.27c.36,0,.68.08.97.24s.52.4.69.72c.17.32.26.72.26,1.2s-.08.88-.25,1.2-.4.56-.68.72c-.29.16-.62.24-.98.24ZM126.73,139.44c.27,0,.51-.06.72-.18.22-.12.39-.3.51-.52.12-.23.19-.49.19-.79s-.06-.57-.19-.79c-.13-.22-.3-.39-.51-.52-.22-.12-.46-.18-.72-.18s-.51.06-.73.18c-.21.12-.38.29-.51.52-.13.22-.19.48-.19.79s.06.56.19.79.3.4.51.52c.21.12.46.18.73.18ZM128.18,140.06v-1.14l.05-.98-.08-.98v-2.82h.77v5.94h-.74Z"/>
    <path d="M131.61,140.11c-.31,0-.59-.05-.83-.16-.24-.11-.42-.25-.55-.44s-.19-.4-.19-.64.05-.44.16-.62c.11-.19.29-.34.54-.45.25-.11.58-.17,1-.17h1.34v.55h-1.31c-.38,0-.64.06-.78.19-.13.13-.2.28-.2.46,0,.21.08.38.25.5.17.13.39.19.69.19s.54-.06.76-.19c.22-.13.37-.31.47-.56l.15.53c-.1.25-.28.45-.54.6-.26.15-.58.22-.97.22ZM133,140.06v-.9l-.04-.17v-1.53c0-.33-.09-.58-.28-.76s-.47-.27-.85-.27c-.25,0-.5.04-.74.12-.24.08-.44.19-.61.33l-.32-.58c.22-.18.48-.31.79-.4.31-.09.63-.14.96-.14.58,0,1.03.14,1.34.42.31.28.47.71.47,1.3v2.56h-.73Z"/>
  </g>
</svg>